<mxfile host="app.diagrams.net" modified="2023-06-02T08:28:33.703Z" agent="Mozilla/5.0 (Windows NT 10.0; Win64; x64) AppleWebKit/537.36 (KHTML, like Gecko) Chrome/113.0.0.0 Safari/537.36" etag="I6aIz3JvoSWEAFDg10sd" version="21.1.9" type="device">
  <diagram name="第 1 页" id="V1W0sLbI2GgZeyCbVdQ1">
    <mxGraphModel dx="1194" dy="682" grid="1" gridSize="10" guides="1" tooltips="1" connect="1" arrows="1" fold="1" page="1" pageScale="1" pageWidth="827" pageHeight="1169" math="0" shadow="0">
      <root>
        <mxCell id="0" />
        <mxCell id="1" parent="0" />
        <mxCell id="-QKBIzKZXesQLSjGnv8I-1" value="&lt;p style=&quot;margin:0px;margin-top:4px;text-align:center;&quot;&gt;&lt;i&gt;&amp;lt;&amp;lt;Interface&amp;gt;&amp;gt;&lt;br&gt;&lt;b&gt;State&lt;/b&gt;&lt;br&gt;&lt;/i&gt;&lt;/p&gt;&lt;hr size=&quot;1&quot;&gt;&lt;p style=&quot;margin:0px;margin-left:4px;&quot;&gt;&lt;/p&gt;&lt;p style=&quot;margin:0px;margin-left:4px;&quot;&gt;&lt;i&gt;+&amp;nbsp;handle()&lt;/i&gt;&lt;/p&gt;" style="verticalAlign=top;align=left;overflow=fill;fontSize=12;fontFamily=Helvetica;html=1;" parent="1" vertex="1">
          <mxGeometry x="500" y="270" width="170" height="63" as="geometry" />
        </mxCell>
        <mxCell id="-QKBIzKZXesQLSjGnv8I-3" value="state" style="endArrow=open;html=1;endSize=12;startArrow=diamondThin;startSize=14;startFill=0;edgeStyle=orthogonalEdgeStyle;align=left;verticalAlign=bottom;rounded=0;entryX=0;entryY=0.25;entryDx=0;entryDy=0;exitX=1;exitY=0.25;exitDx=0;exitDy=0;" parent="1" source="UwBifb_8naFT3TD3uKXL-1" target="-QKBIzKZXesQLSjGnv8I-1" edge="1">
          <mxGeometry x="-0.8008" y="5" relative="1" as="geometry">
            <mxPoint x="394" y="34.25" as="sourcePoint" />
            <mxPoint x="200" y="184" as="targetPoint" />
            <mxPoint as="offset" />
          </mxGeometry>
        </mxCell>
        <mxCell id="UwBifb_8naFT3TD3uKXL-1" value="Context" style="swimlane;fontStyle=1;align=center;verticalAlign=top;childLayout=stackLayout;horizontal=1;startSize=29;horizontalStack=0;resizeParent=1;resizeParentMax=0;resizeLast=0;collapsible=1;marginBottom=0;" parent="1" vertex="1">
          <mxGeometry x="110" y="270" width="190" height="60" as="geometry" />
        </mxCell>
        <mxCell id="UwBifb_8naFT3TD3uKXL-2" value="+ request()" style="text;strokeColor=none;fillColor=none;align=left;verticalAlign=top;spacingLeft=4;spacingRight=4;overflow=hidden;rotatable=0;points=[[0,0.5],[1,0.5]];portConstraint=eastwest;fontStyle=0" parent="UwBifb_8naFT3TD3uKXL-1" vertex="1">
          <mxGeometry y="29" width="190" height="31" as="geometry" />
        </mxCell>
        <mxCell id="UwBifb_8naFT3TD3uKXL-3" value="&lt;div style=&quot;border-color: var(--border-color);&quot;&gt;this.state.handle()&lt;/div&gt;" style="shape=note2;boundedLbl=1;whiteSpace=wrap;html=1;size=25;verticalAlign=middle;align=left;labelPosition=center;verticalLabelPosition=middle;" parent="1" vertex="1">
          <mxGeometry x="210" y="350" width="170" height="50" as="geometry" />
        </mxCell>
        <mxCell id="UwBifb_8naFT3TD3uKXL-4" value="" style="html=1;verticalAlign=bottom;labelBackgroundColor=none;startArrow=oval;startFill=0;startSize=8;endArrow=none;rounded=0;dashed=1;dashPattern=8 8;entryX=0;entryY=0;entryDx=72.5;entryDy=0;entryPerimeter=0;exitX=0.632;exitY=0.677;exitDx=0;exitDy=0;exitPerimeter=0;" parent="1" target="UwBifb_8naFT3TD3uKXL-3" edge="1">
          <mxGeometry x="-0.0549" y="19" relative="1" as="geometry">
            <mxPoint x="193.07999999999993" y="311.9870000000001" as="sourcePoint" />
            <mxPoint x="255.5" y="357" as="targetPoint" />
            <mxPoint x="-1" as="offset" />
          </mxGeometry>
        </mxCell>
        <mxCell id="UwBifb_8naFT3TD3uKXL-6" value="ConcreteStateA" style="swimlane;fontStyle=1;align=center;verticalAlign=top;childLayout=stackLayout;horizontal=1;startSize=29;horizontalStack=0;resizeParent=1;resizeParentMax=0;resizeLast=0;collapsible=1;marginBottom=0;" parent="1" vertex="1">
          <mxGeometry x="440" y="400" width="130" height="60" as="geometry" />
        </mxCell>
        <mxCell id="UwBifb_8naFT3TD3uKXL-10" value="+ handle()" style="text;strokeColor=none;fillColor=none;align=left;verticalAlign=top;spacingLeft=4;spacingRight=4;overflow=hidden;rotatable=0;points=[[0,0.5],[1,0.5]];portConstraint=eastwest;fontStyle=0" parent="UwBifb_8naFT3TD3uKXL-6" vertex="1">
          <mxGeometry y="29" width="130" height="31" as="geometry" />
        </mxCell>
        <mxCell id="UwBifb_8naFT3TD3uKXL-7" value="ConcreteStateB" style="swimlane;fontStyle=1;align=center;verticalAlign=top;childLayout=stackLayout;horizontal=1;startSize=29;horizontalStack=0;resizeParent=1;resizeParentMax=0;resizeLast=0;collapsible=1;marginBottom=0;" parent="1" vertex="1">
          <mxGeometry x="600" y="400" width="130" height="60" as="geometry" />
        </mxCell>
        <mxCell id="UwBifb_8naFT3TD3uKXL-11" value="+ handle()" style="text;strokeColor=none;fillColor=none;align=left;verticalAlign=top;spacingLeft=4;spacingRight=4;overflow=hidden;rotatable=0;points=[[0,0.5],[1,0.5]];portConstraint=eastwest;fontStyle=0" parent="UwBifb_8naFT3TD3uKXL-7" vertex="1">
          <mxGeometry y="29" width="130" height="31" as="geometry" />
        </mxCell>
        <mxCell id="UwBifb_8naFT3TD3uKXL-8" value="" style="endArrow=block;endSize=10;endFill=0;shadow=0;strokeWidth=1;rounded=0;edgeStyle=elbowEdgeStyle;elbow=vertical;dashed=1;dashPattern=8 8;labelBackgroundColor=none;fontColor=default;entryX=0.5;entryY=1;entryDx=0;entryDy=0;" parent="1" source="UwBifb_8naFT3TD3uKXL-7" target="-QKBIzKZXesQLSjGnv8I-1" edge="1">
          <mxGeometry width="160" relative="1" as="geometry">
            <mxPoint x="585" y="170" as="sourcePoint" />
            <mxPoint x="494" y="82" as="targetPoint" />
          </mxGeometry>
        </mxCell>
        <mxCell id="UwBifb_8naFT3TD3uKXL-9" value="" style="endArrow=block;endSize=10;endFill=0;shadow=0;strokeWidth=1;rounded=0;edgeStyle=elbowEdgeStyle;elbow=vertical;dashed=1;dashPattern=8 8;labelBackgroundColor=none;fontColor=default;entryX=0.5;entryY=1;entryDx=0;entryDy=0;" parent="1" source="UwBifb_8naFT3TD3uKXL-6" target="-QKBIzKZXesQLSjGnv8I-1" edge="1">
          <mxGeometry width="160" relative="1" as="geometry">
            <mxPoint x="670" y="410" as="sourcePoint" />
            <mxPoint x="595" y="343" as="targetPoint" />
          </mxGeometry>
        </mxCell>
      </root>
    </mxGraphModel>
  </diagram>
</mxfile>
